<mxfile host="app.diagrams.net" modified="2023-11-19T20:12:58.955Z" agent="Mozilla/5.0 (Windows NT 10.0; Win64; x64; rv:109.0) Gecko/20100101 Firefox/119.0" etag="xA5RU1heakkGOzwa89sY" version="22.1.3" type="device">
  <diagram name="Page-1" id="cJZPm_-N0jz2pwpiDgFU">
    <mxGraphModel dx="1900" dy="511" grid="1" gridSize="10" guides="1" tooltips="1" connect="1" arrows="1" fold="1" page="1" pageScale="1" pageWidth="850" pageHeight="1100" math="0" shadow="0">
      <root>
        <mxCell id="0" />
        <mxCell id="1" parent="0" />
        <mxCell id="O5mIQ4d8pC3eldP-5ByP-1" value="Mission" style="swimlane;fontStyle=0;childLayout=stackLayout;horizontal=1;startSize=26;horizontalStack=0;resizeParent=1;resizeParentMax=0;resizeLast=0;collapsible=1;marginBottom=0;align=center;fontSize=14;" vertex="1" parent="1">
          <mxGeometry x="150" y="370" width="170" height="340" as="geometry" />
        </mxCell>
        <mxCell id="O5mIQ4d8pC3eldP-5ByP-2" value="* mission_id: INT" style="text;strokeColor=none;fillColor=none;spacingLeft=4;spacingRight=4;overflow=hidden;rotatable=0;points=[[0,0.5],[1,0.5]];portConstraint=eastwest;fontSize=12;whiteSpace=wrap;html=1;" vertex="1" parent="O5mIQ4d8pC3eldP-5ByP-1">
          <mxGeometry y="26" width="170" height="30" as="geometry" />
        </mxCell>
        <mxCell id="O5mIQ4d8pC3eldP-5ByP-3" value="# vehicle_id: INT&lt;br&gt;&lt;div&gt;&lt;br&gt;&lt;/div&gt;" style="text;strokeColor=none;fillColor=none;spacingLeft=4;spacingRight=4;overflow=hidden;rotatable=0;points=[[0,0.5],[1,0.5]];portConstraint=eastwest;fontSize=12;whiteSpace=wrap;html=1;" vertex="1" parent="O5mIQ4d8pC3eldP-5ByP-1">
          <mxGeometry y="56" width="170" height="30" as="geometry" />
        </mxCell>
        <mxCell id="O5mIQ4d8pC3eldP-5ByP-4" value="&lt;div&gt;# driver_id: INT&lt;br&gt;&lt;/div&gt;&lt;div&gt;&lt;br&gt;&lt;/div&gt;&lt;div&gt;# client_id: INT&lt;br&gt;&lt;/div&gt;&lt;div&gt;&lt;br&gt;&lt;/div&gt;&lt;div&gt;expected_start: DATE&lt;br&gt;&lt;/div&gt;&lt;div&gt;&lt;br&gt;&lt;/div&gt;&lt;div&gt;expected_end: DATE&lt;br&gt;&lt;/div&gt;&lt;div&gt;&lt;br&gt;&lt;/div&gt;&lt;div&gt;location: VARCHAR(255)&lt;br&gt;&lt;/div&gt;&lt;div&gt;&lt;br&gt;&lt;/div&gt;&lt;div&gt;actual_start: DATE&lt;br&gt;&lt;/div&gt;&lt;div&gt;&lt;br&gt;&lt;/div&gt;&lt;div&gt;actual_end: DATE&lt;br&gt;&lt;/div&gt;&lt;div&gt;&lt;br&gt;&lt;/div&gt;&lt;div&gt;odometer_start: DECIMAL(7,2)&lt;br&gt;&lt;/div&gt;&lt;div&gt;&lt;br&gt;&lt;/div&gt;&lt;div&gt;odometer_end: DECIMAL(7,2)&lt;br&gt;&lt;/div&gt;" style="text;strokeColor=none;fillColor=none;spacingLeft=4;spacingRight=4;overflow=hidden;rotatable=0;points=[[0,0.5],[1,0.5]];portConstraint=eastwest;fontSize=12;whiteSpace=wrap;html=1;" vertex="1" parent="O5mIQ4d8pC3eldP-5ByP-1">
          <mxGeometry y="86" width="170" height="254" as="geometry" />
        </mxCell>
        <mxCell id="O5mIQ4d8pC3eldP-5ByP-5" value="" style="edgeStyle=entityRelationEdgeStyle;fontSize=12;html=1;endArrow=ERoneToMany;rounded=0;entryX=0;entryY=0.5;entryDx=0;entryDy=0;exitX=1;exitY=0.5;exitDx=0;exitDy=0;" edge="1" parent="1" source="O5mIQ4d8pC3eldP-5ByP-8" target="O5mIQ4d8pC3eldP-5ByP-3">
          <mxGeometry width="100" height="100" relative="1" as="geometry">
            <mxPoint y="441" as="sourcePoint" />
            <mxPoint x="70" y="540" as="targetPoint" />
          </mxGeometry>
        </mxCell>
        <mxCell id="O5mIQ4d8pC3eldP-5ByP-6" value="Vehicle" style="swimlane;fontStyle=0;childLayout=stackLayout;horizontal=1;startSize=26;horizontalStack=0;resizeParent=1;resizeParentMax=0;resizeLast=0;collapsible=1;marginBottom=0;align=center;fontSize=14;" vertex="1" parent="1">
          <mxGeometry x="-220" y="270" width="190" height="210" as="geometry" />
        </mxCell>
        <mxCell id="O5mIQ4d8pC3eldP-5ByP-7" value="* vehicle_id: INT" style="text;strokeColor=none;fillColor=none;spacingLeft=4;spacingRight=4;overflow=hidden;rotatable=0;points=[[0,0.5],[1,0.5]];portConstraint=eastwest;fontSize=12;whiteSpace=wrap;html=1;" vertex="1" parent="O5mIQ4d8pC3eldP-5ByP-6">
          <mxGeometry y="26" width="190" height="30" as="geometry" />
        </mxCell>
        <mxCell id="O5mIQ4d8pC3eldP-5ByP-8" value="brand_name: VARCHAR(50)" style="text;strokeColor=none;fillColor=none;spacingLeft=4;spacingRight=4;overflow=hidden;rotatable=0;points=[[0,0.5],[1,0.5]];portConstraint=eastwest;fontSize=12;whiteSpace=wrap;html=1;" vertex="1" parent="O5mIQ4d8pC3eldP-5ByP-6">
          <mxGeometry y="56" width="190" height="30" as="geometry" />
        </mxCell>
        <mxCell id="O5mIQ4d8pC3eldP-5ByP-9" value="&lt;div&gt;rental_hour_price: DECIMAL(8,2)&lt;br&gt;&lt;/div&gt;&lt;div&gt;&lt;br&gt;&lt;/div&gt;&lt;div&gt;kilometer_price: DECIMAL(8,2)&lt;br&gt;&lt;/div&gt;&lt;div&gt;&lt;br&gt;&lt;/div&gt;&lt;div&gt;vehicle_type: VARCHAR(30)&lt;br&gt;&lt;/div&gt;&lt;div&gt;&lt;span style=&quot;white-space: pre;&quot;&gt;&#x9;&lt;/span&gt;CHECK( VALUE IN(&lt;/div&gt;&lt;div&gt;&quot;Heavyweight&quot;, &quot;Tourist&quot;, &quot;Super Heavyweight&quot;)&lt;span style=&quot;white-space: pre;&quot;&gt;&#x9;&lt;/span&gt;)&lt;br&gt;&lt;/div&gt;" style="text;strokeColor=none;fillColor=none;spacingLeft=4;spacingRight=4;overflow=hidden;rotatable=0;points=[[0,0.5],[1,0.5]];portConstraint=eastwest;fontSize=12;whiteSpace=wrap;html=1;" vertex="1" parent="O5mIQ4d8pC3eldP-5ByP-6">
          <mxGeometry y="86" width="190" height="124" as="geometry" />
        </mxCell>
        <mxCell id="O5mIQ4d8pC3eldP-5ByP-10" value="" style="edgeStyle=entityRelationEdgeStyle;fontSize=12;html=1;endArrow=ERoneToMany;rounded=0;entryX=1.019;entryY=0.071;entryDx=0;entryDy=0;entryPerimeter=0;exitX=-0.009;exitY=0.306;exitDx=0;exitDy=0;exitPerimeter=0;" edge="1" parent="1" source="O5mIQ4d8pC3eldP-5ByP-12" target="O5mIQ4d8pC3eldP-5ByP-4">
          <mxGeometry width="100" height="100" relative="1" as="geometry">
            <mxPoint x="540" y="471.0000000000001" as="sourcePoint" />
            <mxPoint x="450" y="510" as="targetPoint" />
          </mxGeometry>
        </mxCell>
        <mxCell id="O5mIQ4d8pC3eldP-5ByP-11" value="Driver" style="swimlane;fontStyle=0;childLayout=stackLayout;horizontal=1;startSize=26;horizontalStack=0;resizeParent=1;resizeParentMax=0;resizeLast=0;collapsible=1;marginBottom=0;align=center;fontSize=14;" vertex="1" parent="1">
          <mxGeometry x="540" y="370" width="170" height="86" as="geometry" />
        </mxCell>
        <mxCell id="O5mIQ4d8pC3eldP-5ByP-12" value="* driver_id: INT" style="text;strokeColor=none;fillColor=none;spacingLeft=4;spacingRight=4;overflow=hidden;rotatable=0;points=[[0,0.5],[1,0.5]];portConstraint=eastwest;fontSize=12;whiteSpace=wrap;html=1;" vertex="1" parent="O5mIQ4d8pC3eldP-5ByP-11">
          <mxGeometry y="26" width="170" height="30" as="geometry" />
        </mxCell>
        <mxCell id="O5mIQ4d8pC3eldP-5ByP-13" value="driver_name: VARCHAR(255)" style="text;strokeColor=none;fillColor=none;spacingLeft=4;spacingRight=4;overflow=hidden;rotatable=0;points=[[0,0.5],[1,0.5]];portConstraint=eastwest;fontSize=12;whiteSpace=wrap;html=1;" vertex="1" parent="O5mIQ4d8pC3eldP-5ByP-11">
          <mxGeometry y="56" width="170" height="30" as="geometry" />
        </mxCell>
        <mxCell id="O5mIQ4d8pC3eldP-5ByP-14" value="Client" style="swimlane;fontStyle=0;childLayout=stackLayout;horizontal=1;startSize=26;horizontalStack=0;resizeParent=1;resizeParentMax=0;resizeLast=0;collapsible=1;marginBottom=0;align=center;fontSize=14;" vertex="1" parent="1">
          <mxGeometry x="-240" y="550" width="180" height="86" as="geometry" />
        </mxCell>
        <mxCell id="O5mIQ4d8pC3eldP-5ByP-15" value="* client_number: VARCHAR(50)" style="text;strokeColor=none;fillColor=none;spacingLeft=4;spacingRight=4;overflow=hidden;rotatable=0;points=[[0,0.5],[1,0.5]];portConstraint=eastwest;fontSize=12;whiteSpace=wrap;html=1;" vertex="1" parent="O5mIQ4d8pC3eldP-5ByP-14">
          <mxGeometry y="26" width="180" height="30" as="geometry" />
        </mxCell>
        <mxCell id="O5mIQ4d8pC3eldP-5ByP-16" value="address: VARVHAR(255)" style="text;strokeColor=none;fillColor=none;spacingLeft=4;spacingRight=4;overflow=hidden;rotatable=0;points=[[0,0.5],[1,0.5]];portConstraint=eastwest;fontSize=12;whiteSpace=wrap;html=1;" vertex="1" parent="O5mIQ4d8pC3eldP-5ByP-14">
          <mxGeometry y="56" width="180" height="30" as="geometry" />
        </mxCell>
        <mxCell id="O5mIQ4d8pC3eldP-5ByP-17" value="" style="edgeStyle=entityRelationEdgeStyle;fontSize=12;html=1;endArrow=ERoneToMany;rounded=0;entryX=-0.012;entryY=0.173;entryDx=0;entryDy=0;exitX=1.019;exitY=0.233;exitDx=0;exitDy=0;exitPerimeter=0;entryPerimeter=0;" edge="1" parent="1" source="O5mIQ4d8pC3eldP-5ByP-15" target="O5mIQ4d8pC3eldP-5ByP-4">
          <mxGeometry width="100" height="100" relative="1" as="geometry">
            <mxPoint x="-100" y="750" as="sourcePoint" />
            <mxPoint y="650" as="targetPoint" />
            <Array as="points">
              <mxPoint x="50" y="560" />
            </Array>
          </mxGeometry>
        </mxCell>
        <mxCell id="O5mIQ4d8pC3eldP-5ByP-18" value="" style="shape=flexArrow;endArrow=classic;html=1;rounded=0;exitX=0;exitY=0.5;exitDx=0;exitDy=0;" edge="1" parent="1" source="O5mIQ4d8pC3eldP-5ByP-16">
          <mxGeometry width="50" height="50" relative="1" as="geometry">
            <mxPoint x="-240" y="624" as="sourcePoint" />
            <mxPoint x="-330" y="734" as="targetPoint" />
            <Array as="points">
              <mxPoint x="-330" y="620" />
            </Array>
          </mxGeometry>
        </mxCell>
        <mxCell id="O5mIQ4d8pC3eldP-5ByP-19" value="Business" style="swimlane;fontStyle=0;childLayout=stackLayout;horizontal=1;startSize=26;horizontalStack=0;resizeParent=1;resizeParentMax=0;resizeLast=0;collapsible=1;marginBottom=0;align=center;fontSize=14;" vertex="1" parent="1">
          <mxGeometry x="-410" y="734" width="190" height="56" as="geometry" />
        </mxCell>
        <mxCell id="O5mIQ4d8pC3eldP-5ByP-20" value="business_name: VARCHAR(255)" style="text;strokeColor=none;fillColor=none;spacingLeft=4;spacingRight=4;overflow=hidden;rotatable=0;points=[[0,0.5],[1,0.5]];portConstraint=eastwest;fontSize=12;whiteSpace=wrap;html=1;" vertex="1" parent="O5mIQ4d8pC3eldP-5ByP-19">
          <mxGeometry y="26" width="190" height="30" as="geometry" />
        </mxCell>
        <mxCell id="O5mIQ4d8pC3eldP-5ByP-21" value="Person" style="swimlane;fontStyle=0;childLayout=stackLayout;horizontal=1;startSize=26;horizontalStack=0;resizeParent=1;resizeParentMax=0;resizeLast=0;collapsible=1;marginBottom=0;align=center;fontSize=14;" vertex="1" parent="1">
          <mxGeometry x="-60" y="734" width="170" height="56" as="geometry" />
        </mxCell>
        <mxCell id="O5mIQ4d8pC3eldP-5ByP-22" value="client_name: VARCHAR(255)" style="text;strokeColor=none;fillColor=none;spacingLeft=4;spacingRight=4;overflow=hidden;rotatable=0;points=[[0,0.5],[1,0.5]];portConstraint=eastwest;fontSize=12;whiteSpace=wrap;html=1;" vertex="1" parent="O5mIQ4d8pC3eldP-5ByP-21">
          <mxGeometry y="26" width="170" height="30" as="geometry" />
        </mxCell>
        <mxCell id="O5mIQ4d8pC3eldP-5ByP-23" value="" style="shape=flexArrow;endArrow=classic;html=1;rounded=0;exitX=1;exitY=0.5;exitDx=0;exitDy=0;entryX=0.344;entryY=0;entryDx=0;entryDy=0;entryPerimeter=0;" edge="1" parent="1" source="O5mIQ4d8pC3eldP-5ByP-16" target="O5mIQ4d8pC3eldP-5ByP-21">
          <mxGeometry width="50" height="50" relative="1" as="geometry">
            <mxPoint x="-10" y="714" as="sourcePoint" />
            <mxPoint x="40" y="664" as="targetPoint" />
            <Array as="points">
              <mxPoint x="-5" y="621" />
            </Array>
          </mxGeometry>
        </mxCell>
        <mxCell id="O5mIQ4d8pC3eldP-5ByP-30" value="Driver Licence" style="swimlane;fontStyle=0;childLayout=stackLayout;horizontal=1;startSize=26;horizontalStack=0;resizeParent=1;resizeParentMax=0;resizeLast=0;collapsible=1;marginBottom=0;align=center;fontSize=14;" vertex="1" parent="1">
          <mxGeometry x="940" y="370" width="160" height="116" as="geometry" />
        </mxCell>
        <mxCell id="O5mIQ4d8pC3eldP-5ByP-31" value="driver_id" style="text;strokeColor=none;fillColor=none;spacingLeft=4;spacingRight=4;overflow=hidden;rotatable=0;points=[[0,0.5],[1,0.5]];portConstraint=eastwest;fontSize=12;whiteSpace=wrap;html=1;" vertex="1" parent="O5mIQ4d8pC3eldP-5ByP-30">
          <mxGeometry y="26" width="160" height="30" as="geometry" />
        </mxCell>
        <mxCell id="O5mIQ4d8pC3eldP-5ByP-32" value="vehicle_type" style="text;strokeColor=none;fillColor=none;spacingLeft=4;spacingRight=4;overflow=hidden;rotatable=0;points=[[0,0.5],[1,0.5]];portConstraint=eastwest;fontSize=12;whiteSpace=wrap;html=1;" vertex="1" parent="O5mIQ4d8pC3eldP-5ByP-30">
          <mxGeometry y="56" width="160" height="30" as="geometry" />
        </mxCell>
        <mxCell id="O5mIQ4d8pC3eldP-5ByP-33" value="Item 3" style="text;strokeColor=none;fillColor=none;spacingLeft=4;spacingRight=4;overflow=hidden;rotatable=0;points=[[0,0.5],[1,0.5]];portConstraint=eastwest;fontSize=12;whiteSpace=wrap;html=1;" vertex="1" parent="O5mIQ4d8pC3eldP-5ByP-30">
          <mxGeometry y="86" width="160" height="30" as="geometry" />
        </mxCell>
        <mxCell id="O5mIQ4d8pC3eldP-5ByP-34" value="" style="edgeStyle=entityRelationEdgeStyle;fontSize=12;html=1;endArrow=ERoneToMany;rounded=0;entryX=0;entryY=0.5;entryDx=0;entryDy=0;exitX=1;exitY=0.5;exitDx=0;exitDy=0;" edge="1" parent="1" source="O5mIQ4d8pC3eldP-5ByP-12" target="O5mIQ4d8pC3eldP-5ByP-31">
          <mxGeometry width="100" height="100" relative="1" as="geometry">
            <mxPoint x="720" y="560" as="sourcePoint" />
            <mxPoint x="820" y="460" as="targetPoint" />
          </mxGeometry>
        </mxCell>
        <mxCell id="O5mIQ4d8pC3eldP-5ByP-35" value="Line Order" style="swimlane;fontStyle=0;childLayout=stackLayout;horizontal=1;startSize=26;horizontalStack=0;resizeParent=1;resizeParentMax=0;resizeLast=0;collapsible=1;marginBottom=0;align=center;fontSize=14;" vertex="1" parent="1">
          <mxGeometry x="150" y="880" width="160" height="86" as="geometry" />
        </mxCell>
        <mxCell id="O5mIQ4d8pC3eldP-5ByP-36" value="* # mission_id: INT" style="text;strokeColor=none;fillColor=none;spacingLeft=4;spacingRight=4;overflow=hidden;rotatable=0;points=[[0,0.5],[1,0.5]];portConstraint=eastwest;fontSize=12;whiteSpace=wrap;html=1;" vertex="1" parent="O5mIQ4d8pC3eldP-5ByP-35">
          <mxGeometry y="26" width="160" height="30" as="geometry" />
        </mxCell>
        <mxCell id="O5mIQ4d8pC3eldP-5ByP-37" value="* # invoice_id: INT" style="text;strokeColor=none;fillColor=none;spacingLeft=4;spacingRight=4;overflow=hidden;rotatable=0;points=[[0,0.5],[1,0.5]];portConstraint=eastwest;fontSize=12;whiteSpace=wrap;html=1;" vertex="1" parent="O5mIQ4d8pC3eldP-5ByP-35">
          <mxGeometry y="56" width="160" height="30" as="geometry" />
        </mxCell>
        <mxCell id="O5mIQ4d8pC3eldP-5ByP-38" value="Invoice" style="swimlane;fontStyle=0;childLayout=stackLayout;horizontal=1;startSize=26;horizontalStack=0;resizeParent=1;resizeParentMax=0;resizeLast=0;collapsible=1;marginBottom=0;align=center;fontSize=14;" vertex="1" parent="1">
          <mxGeometry x="430" y="880" width="190" height="140" as="geometry" />
        </mxCell>
        <mxCell id="O5mIQ4d8pC3eldP-5ByP-39" value="* invoice_id: INT" style="text;strokeColor=none;fillColor=none;spacingLeft=4;spacingRight=4;overflow=hidden;rotatable=0;points=[[0,0.5],[1,0.5]];portConstraint=eastwest;fontSize=12;whiteSpace=wrap;html=1;" vertex="1" parent="O5mIQ4d8pC3eldP-5ByP-38">
          <mxGeometry y="26" width="190" height="30" as="geometry" />
        </mxCell>
        <mxCell id="O5mIQ4d8pC3eldP-5ByP-40" value="# tax_id: INT" style="text;strokeColor=none;fillColor=none;spacingLeft=4;spacingRight=4;overflow=hidden;rotatable=0;points=[[0,0.5],[1,0.5]];portConstraint=eastwest;fontSize=12;whiteSpace=wrap;html=1;" vertex="1" parent="O5mIQ4d8pC3eldP-5ByP-38">
          <mxGeometry y="56" width="190" height="30" as="geometry" />
        </mxCell>
        <mxCell id="O5mIQ4d8pC3eldP-5ByP-41" value="&lt;div&gt;is_paid: CHAR(1)&lt;br&gt;&lt;/div&gt;&lt;div&gt;&lt;br&gt;&lt;/div&gt;&lt;div&gt;payment_method: VARCHAR(5)&lt;br&gt;&lt;/div&gt;" style="text;strokeColor=none;fillColor=none;spacingLeft=4;spacingRight=4;overflow=hidden;rotatable=0;points=[[0,0.5],[1,0.5]];portConstraint=eastwest;fontSize=12;whiteSpace=wrap;html=1;" vertex="1" parent="O5mIQ4d8pC3eldP-5ByP-38">
          <mxGeometry y="86" width="190" height="54" as="geometry" />
        </mxCell>
        <mxCell id="O5mIQ4d8pC3eldP-5ByP-42" value="" style="fontSize=12;html=1;endArrow=ERoneToMany;rounded=0;exitX=0.5;exitY=1;exitDx=0;exitDy=0;exitPerimeter=0;entryX=0.5;entryY=0;entryDx=0;entryDy=0;" edge="1" parent="1" source="O5mIQ4d8pC3eldP-5ByP-4" target="O5mIQ4d8pC3eldP-5ByP-35">
          <mxGeometry width="100" height="100" relative="1" as="geometry">
            <mxPoint x="211" y="750" as="sourcePoint" />
            <mxPoint x="230" y="870" as="targetPoint" />
          </mxGeometry>
        </mxCell>
        <mxCell id="O5mIQ4d8pC3eldP-5ByP-43" value="" style="fontSize=12;html=1;endArrow=ERoneToMany;rounded=0;exitX=-0.037;exitY=0.5;exitDx=0;exitDy=0;exitPerimeter=0;entryX=1;entryY=0.5;entryDx=0;entryDy=0;" edge="1" parent="1" source="O5mIQ4d8pC3eldP-5ByP-39" target="O5mIQ4d8pC3eldP-5ByP-36">
          <mxGeometry width="100" height="100" relative="1" as="geometry">
            <mxPoint x="180" y="1170" as="sourcePoint" />
            <mxPoint x="280" y="1070" as="targetPoint" />
          </mxGeometry>
        </mxCell>
        <mxCell id="O5mIQ4d8pC3eldP-5ByP-44" value="Reservation" style="swimlane;fontStyle=0;childLayout=stackLayout;horizontal=1;startSize=26;horizontalStack=0;resizeParent=1;resizeParentMax=0;resizeLast=0;collapsible=1;marginBottom=0;align=center;fontSize=14;" vertex="1" parent="1">
          <mxGeometry x="-520" y="400" width="160" height="170" as="geometry" />
        </mxCell>
        <mxCell id="O5mIQ4d8pC3eldP-5ByP-45" value="client_id" style="text;strokeColor=none;fillColor=none;spacingLeft=4;spacingRight=4;overflow=hidden;rotatable=0;points=[[0,0.5],[1,0.5]];portConstraint=eastwest;fontSize=12;whiteSpace=wrap;html=1;" vertex="1" parent="O5mIQ4d8pC3eldP-5ByP-44">
          <mxGeometry y="26" width="160" height="30" as="geometry" />
        </mxCell>
        <mxCell id="O5mIQ4d8pC3eldP-5ByP-46" value="vehicle_type" style="text;strokeColor=none;fillColor=none;spacingLeft=4;spacingRight=4;overflow=hidden;rotatable=0;points=[[0,0.5],[1,0.5]];portConstraint=eastwest;fontSize=12;whiteSpace=wrap;html=1;" vertex="1" parent="O5mIQ4d8pC3eldP-5ByP-44">
          <mxGeometry y="56" width="160" height="30" as="geometry" />
        </mxCell>
        <mxCell id="O5mIQ4d8pC3eldP-5ByP-47" value="&lt;div&gt;location&lt;/div&gt;&lt;div&gt;&lt;br&gt;&lt;/div&gt;&lt;div&gt;appointment_start&lt;/div&gt;&lt;div&gt;&lt;br&gt;&lt;/div&gt;&lt;div&gt;appointment_end&lt;br&gt;&lt;/div&gt;&lt;div&gt;&lt;br&gt;&lt;/div&gt;&lt;div&gt;&lt;br&gt;&lt;/div&gt;" style="text;strokeColor=none;fillColor=none;spacingLeft=4;spacingRight=4;overflow=hidden;rotatable=0;points=[[0,0.5],[1,0.5]];portConstraint=eastwest;fontSize=12;whiteSpace=wrap;html=1;" vertex="1" parent="O5mIQ4d8pC3eldP-5ByP-44">
          <mxGeometry y="86" width="160" height="84" as="geometry" />
        </mxCell>
        <mxCell id="O5mIQ4d8pC3eldP-5ByP-51" value="Concerns" style="text;html=1;strokeColor=none;fillColor=none;align=center;verticalAlign=middle;whiteSpace=wrap;rounded=0;" vertex="1" parent="1">
          <mxGeometry x="-310" y="690" width="60" height="30" as="geometry" />
        </mxCell>
        <mxCell id="O5mIQ4d8pC3eldP-5ByP-52" value="Concerns" style="text;html=1;strokeColor=none;fillColor=none;align=center;verticalAlign=middle;whiteSpace=wrap;rounded=0;" vertex="1" parent="1">
          <mxGeometry x="10" y="690" width="60" height="30" as="geometry" />
        </mxCell>
        <mxCell id="O5mIQ4d8pC3eldP-5ByP-54" value="N" style="text;html=1;strokeColor=none;fillColor=none;align=center;verticalAlign=middle;whiteSpace=wrap;rounded=0;" vertex="1" parent="1">
          <mxGeometry x="890" y="380" width="60" height="30" as="geometry" />
        </mxCell>
        <mxCell id="O5mIQ4d8pC3eldP-5ByP-55" value="1" style="text;html=1;strokeColor=none;fillColor=none;align=center;verticalAlign=middle;whiteSpace=wrap;rounded=0;" vertex="1" parent="1">
          <mxGeometry x="700" y="380" width="60" height="30" as="geometry" />
        </mxCell>
        <mxCell id="O5mIQ4d8pC3eldP-5ByP-57" value="Tax" style="swimlane;fontStyle=0;childLayout=stackLayout;horizontal=1;startSize=26;horizontalStack=0;resizeParent=1;resizeParentMax=0;resizeLast=0;collapsible=1;marginBottom=0;align=center;fontSize=14;" vertex="1" parent="1">
          <mxGeometry x="720" y="880" width="180" height="116" as="geometry" />
        </mxCell>
        <mxCell id="O5mIQ4d8pC3eldP-5ByP-58" value="* tax_id: INT&lt;span style=&quot;white-space: pre;&quot;&gt;&#x9;&lt;/span&gt;" style="text;strokeColor=none;fillColor=none;spacingLeft=4;spacingRight=4;overflow=hidden;rotatable=0;points=[[0,0.5],[1,0.5]];portConstraint=eastwest;fontSize=12;whiteSpace=wrap;html=1;" vertex="1" parent="O5mIQ4d8pC3eldP-5ByP-57">
          <mxGeometry y="26" width="180" height="30" as="geometry" />
        </mxCell>
        <mxCell id="O5mIQ4d8pC3eldP-5ByP-59" value="federal_taxes: DECIMAL(4,2)" style="text;strokeColor=none;fillColor=none;spacingLeft=4;spacingRight=4;overflow=hidden;rotatable=0;points=[[0,0.5],[1,0.5]];portConstraint=eastwest;fontSize=12;whiteSpace=wrap;html=1;" vertex="1" parent="O5mIQ4d8pC3eldP-5ByP-57">
          <mxGeometry y="56" width="180" height="30" as="geometry" />
        </mxCell>
        <mxCell id="O5mIQ4d8pC3eldP-5ByP-60" value="provincial_taxes: DECIMAL(4,2)" style="text;strokeColor=none;fillColor=none;spacingLeft=4;spacingRight=4;overflow=hidden;rotatable=0;points=[[0,0.5],[1,0.5]];portConstraint=eastwest;fontSize=12;whiteSpace=wrap;html=1;" vertex="1" parent="O5mIQ4d8pC3eldP-5ByP-57">
          <mxGeometry y="86" width="180" height="30" as="geometry" />
        </mxCell>
        <mxCell id="O5mIQ4d8pC3eldP-5ByP-61" value="" style="fontSize=12;html=1;endArrow=ERoneToMany;rounded=0;exitX=0;exitY=0.5;exitDx=0;exitDy=0;entryX=1;entryY=0.5;entryDx=0;entryDy=0;" edge="1" parent="1" source="O5mIQ4d8pC3eldP-5ByP-58" target="O5mIQ4d8pC3eldP-5ByP-39">
          <mxGeometry width="100" height="100" relative="1" as="geometry">
            <mxPoint x="824" y="850" as="sourcePoint" />
            <mxPoint x="680" y="850" as="targetPoint" />
          </mxGeometry>
        </mxCell>
        <mxCell id="O5mIQ4d8pC3eldP-5ByP-62" value="" style="fontSize=12;html=1;endArrow=ERoneToMany;rounded=0;exitX=0;exitY=0.5;exitDx=0;exitDy=0;entryX=1;entryY=0.5;entryDx=0;entryDy=0;" edge="1" parent="1" source="O5mIQ4d8pC3eldP-5ByP-15" target="O5mIQ4d8pC3eldP-5ByP-45">
          <mxGeometry width="100" height="100" relative="1" as="geometry">
            <mxPoint x="-130" y="500" as="sourcePoint" />
            <mxPoint x="-274" y="500" as="targetPoint" />
            <Array as="points">
              <mxPoint x="-320" y="590" />
              <mxPoint x="-320" y="440" />
            </Array>
          </mxGeometry>
        </mxCell>
        <mxCell id="O5mIQ4d8pC3eldP-5ByP-63" value="Legend:&lt;br&gt;* : Primary Key&lt;br&gt;# : Foreign Key" style="rounded=1;whiteSpace=wrap;html=1;" vertex="1" parent="1">
          <mxGeometry x="-370" y="920" width="120" height="60" as="geometry" />
        </mxCell>
      </root>
    </mxGraphModel>
  </diagram>
</mxfile>
